<?xml version="1.0" encoding="UTF-8" standalone="no"?>
<!DOCTYPE svg PUBLIC "-//W3C//DTD SVG 1.1//EN" "http://www.w3.org/Graphics/SVG/1.1/DTD/svg11.dtd">
<svg width="100%" height="100%" viewBox="0 0 24 24" version="1.1" xmlns="http://www.w3.org/2000/svg" xmlns:xlink="http://www.w3.org/1999/xlink" xml:space="preserve" style="fill-rule:evenodd;clip-rule:evenodd;stroke-linejoin:round;stroke-miterlimit:1.41421;">
    <g transform="matrix(1,0,0,1,0,-0.318813)">
        <g id="Prancheta4" transform="matrix(0.559056,0,0,0.563918,0,117.631)">
            <rect x="0" y="-208.03" width="42.542" height="42.542" style="fill:none;"/>
            <g transform="matrix(0.083425,0,0,0.0827057,21.3568,-186.858)">
                <g transform="matrix(1,0,0,1,-256,-256)">
                    <path d="M387.512,378.89C387.512,389.591 378.88,398.275 368.159,398.275L144.005,398.275C133.304,398.275 124.641,389.592 124.641,378.89L124.641,178.627C183.398,178.412 320.471,178.412 387.512,178.627L387.512,378.89Z" style="fill-rule:nonzero;"/>
                    <path d="M207.678,75.95C208.784,78.121 207.944,80.835 205.743,81.961C203.562,83.067 200.849,82.197 199.743,80.016L171.409,24.792C170.283,22.591 171.183,19.928 173.365,18.792C175.546,17.665 178.239,18.536 179.365,20.728L207.679,75.952L207.678,75.95Z" style="fill-rule:nonzero;"/>
                    <path d="M310.876,78.275C309.647,80.415 306.924,81.152 304.773,79.883C302.643,78.674 301.916,75.951 303.165,73.81L334.192,20.08C335.421,17.95 338.165,17.193 340.274,18.452C342.425,19.67 343.151,22.405 341.923,24.524L310.875,78.274L310.876,78.275Z" style="fill-rule:nonzero;"/>
                    <path d="M455.946,324.587C455.946,340.162 443.331,352.808 427.725,352.808C412.119,352.808 399.473,340.172 399.473,324.587L399.473,201.082C399.473,185.476 412.109,172.871 427.725,172.871C443.321,172.871 455.946,185.477 455.946,201.082L455.946,324.587Z" style="fill-rule:nonzero;"/>
                    <path d="M112.496,324.587C112.496,340.162 99.84,352.808 84.285,352.808C68.669,352.808 56.043,340.172 56.043,324.587L56.043,201.082C56.043,185.476 68.658,172.871 84.285,172.871C99.84,172.871 112.496,185.477 112.496,201.082L112.496,324.587Z" style="fill-rule:nonzero;"/>
                    <path d="M235.397,465.93C235.397,481.505 222.761,494.151 207.135,494.151C191.56,494.151 178.945,481.515 178.945,465.93L178.945,342.425C178.945,326.86 191.56,314.183 207.135,314.183C222.751,314.183 235.397,326.86 235.397,342.425L235.397,465.93Z" style="fill-rule:nonzero;"/>
                    <path d="M333.302,465.93C333.302,481.505 320.666,494.151 305.05,494.151C289.475,494.151 276.829,481.515 276.829,465.93L276.829,342.425C276.829,326.86 289.465,314.183 305.05,314.183C320.656,314.183 333.302,326.86 333.302,342.425L333.302,465.93Z" style="fill-rule:nonzero;"/>
                    <path d="M256.082,46.663C187.433,46.663 130.898,98.908 123.341,166.062L388.813,166.062C381.277,98.908 324.772,46.664 256.082,46.664L256.082,46.663ZM196.188,119.05C190.064,119.05 185.118,114.125 185.118,108.022C185.118,101.94 190.064,97.014 196.188,97.014C202.25,97.014 207.196,101.939 207.196,108.022C207.196,114.125 202.25,119.05 196.188,119.05ZM316.211,119.05C310.108,119.05 305.162,114.125 305.162,108.022C305.162,101.94 310.108,97.014 316.211,97.014C322.334,97.014 327.24,101.939 327.24,108.022C327.24,114.125 322.335,119.05 316.211,119.05Z" style="fill-rule:nonzero;"/>
                </g>
            </g>
        </g>
    </g>
</svg>
