<?xml version="1.0" encoding="UTF-8" standalone="no"?>
<!DOCTYPE svg PUBLIC "-//W3C//DTD SVG 1.1//EN" "http://www.w3.org/Graphics/SVG/1.1/DTD/svg11.dtd">
<svg width="100%" height="100%" viewBox="0 0 17 17" version="1.1" xmlns="http://www.w3.org/2000/svg" xmlns:xlink="http://www.w3.org/1999/xlink" xml:space="preserve" style="fill-rule:evenodd;clip-rule:evenodd;stroke-linejoin:round;stroke-miterlimit:1.41421;">
    <g transform="matrix(1,0,0,1,-3807.16,-97.4086)">
        <g id="Prancheta7" transform="matrix(0.342803,0,0,0.352938,2502.06,63.0294)">
            <rect x="3807.16" y="97.409" width="48.084" height="47.506" style="fill:none;"/>
            <g transform="matrix(1.98409,0,0,1.92711,3830.97,121.11)">
                <g transform="matrix(1,0,0,1,-12,-12)">
                    <clipPath id="_clip1">
                        <rect x="0" y="0" width="24" height="24"/>
                    </clipPath>
                    <g clip-path="url(#_clip1)">
                        <path d="M2,7.688C2.982,6.766 3.965,5.843 4.946,4.919C5.062,4.81 5.175,4.699 5.293,4.591C5.66,4.263 6.046,3.959 6.456,3.686C7.404,3.055 8.459,2.588 9.564,2.31C10.24,2.141 10.931,2.046 11.627,2.016C11.794,2.011 11.96,2.009 12.127,2.01C12.675,2.021 13.221,2.069 13.761,2.167C15.005,2.392 16.203,2.858 17.274,3.53C18.6,4.361 19.726,5.501 20.541,6.836C21.288,8.06 21.768,9.442 21.933,10.867C22.087,12.203 21.968,13.567 21.581,14.855C21.209,16.095 20.592,17.257 19.779,18.264C18.999,19.232 18.04,20.054 16.964,20.676C16.01,21.227 14.965,21.619 13.883,21.829C13.037,21.993 12.169,22.045 11.308,21.985C10.121,21.903 8.951,21.606 7.868,21.113C6.482,20.483 5.246,19.535 4.277,18.36C3.786,17.765 3.365,17.112 3.024,16.42C2.865,16.096 2.725,15.764 2.6,15.426L2.568,15.337C2.546,15.263 2.537,15.245 2.524,15.168C2.49,14.967 2.519,14.757 2.606,14.573C2.77,14.225 3.131,13.998 3.515,14C3.603,14 3.69,14.012 3.774,14.035C3.886,14.066 3.993,14.117 4.088,14.184C4.183,14.251 4.266,14.335 4.332,14.431C4.376,14.495 4.383,14.513 4.419,14.582C4.48,14.733 4.533,14.886 4.594,15.037C4.91,15.801 5.337,16.514 5.869,17.147C6.802,18.257 8.035,19.104 9.406,19.575C10.188,19.845 11.012,19.991 11.84,20.008C12.595,20.023 13.352,19.93 14.08,19.731C14.956,19.491 15.789,19.1 16.534,18.581C17.38,17.993 18.111,17.244 18.679,16.385C19.253,15.516 19.656,14.537 19.855,13.514C20.047,12.523 20.047,11.496 19.855,10.505C19.675,9.577 19.326,8.685 18.834,7.878C18.113,6.696 17.087,5.705 15.879,5.027C15.14,4.612 14.335,4.315 13.503,4.153C12.716,4.001 11.907,3.97 11.111,4.059C10.334,4.146 9.57,4.347 8.85,4.655C8.191,4.937 7.57,5.308 7.009,5.756C6.773,5.945 6.549,6.148 6.334,6.361L3.533,8.992C4.705,8.983 5.877,8.973 7.048,9.001C7.097,9.005 7.097,9.005 7.144,9.01C7.289,9.035 7.425,9.083 7.548,9.164C7.656,9.234 7.75,9.326 7.823,9.432C8.066,9.784 8.055,10.267 7.795,10.607C7.726,10.697 7.642,10.775 7.548,10.836C7.397,10.935 7.227,10.986 7.048,10.999C5.032,11.048 3.014,11.047 0.998,11C0.984,11 0.97,11 0.955,10.999L0.952,10.999L0.951,10.999C0.928,10.998 0.905,10.996 0.882,10.993C0.825,10.986 0.769,10.974 0.715,10.958C0.686,10.95 0.657,10.94 0.628,10.928C0.368,10.824 0.16,10.61 0.062,10.347L0.062,10.347L0.062,10.346L0.059,10.34L0.057,10.331L0.056,10.33L0.056,10.329L0.055,10.327L0.053,10.321L0.05,10.313L0.049,10.31L0.049,10.31L0.049,10.309C0.022,10.225 0.006,10.138 0.001,10.05L0.001,10.048L0.001,10.044C0,10.03 0,10.016 0,10.001C-0.047,7.985 -0.048,5.968 0.001,3.952C0.009,3.838 0.031,3.729 0.074,3.623C0.178,3.368 0.388,3.163 0.645,3.065C0.737,3.03 0.831,3.012 0.928,3.003C0.976,3 1.024,3 1.072,3.003C1.186,3.014 1.295,3.038 1.399,3.083C1.667,3.2 1.875,3.434 1.958,3.714C1.986,3.808 1.998,3.903 2,4L2,7.688Z" style="fill:white;"/>
                    </g>
                </g>
            </g>
        </g>
    </g>
</svg>
